<svg width="49" height="44" viewBox="0 0 49 44" fill="none" xmlns="http://www.w3.org/2000/svg">
<path d="M24.5003 26.3867C26.9216 26.3867 28.8845 24.4041 28.8845 21.9584C28.8845 19.5127 26.9216 17.53 24.5003 17.53C22.079 17.53 20.1162 19.5127 20.1162 21.9584C20.1162 24.4041 22.079 26.3867 24.5003 26.3867Z" fill="#EC5242"/>
<path fill-rule="evenodd" clip-rule="evenodd" d="M24.5004 12.9546C30.3867 12.9546 35.855 13.8078 39.978 15.2415C44.9457 16.969 48 19.5874 48 21.9584C48 24.4291 44.763 27.2108 39.4284 28.9961C35.3953 30.3458 30.088 31.0504 24.5004 31.0504C18.7715 31.0504 13.3466 30.389 9.26809 28.9813C4.10798 27.1998 1 24.3821 1 21.9584C1 19.6066 3.91625 17.0084 8.81409 15.2836C12.9525 13.8262 18.5558 12.9546 24.4996 12.9546H24.5004Z" stroke="#EC5242" stroke-width="1.66272"/>
<path fill-rule="evenodd" clip-rule="evenodd" d="M16.7406 17.4825C19.6813 12.332 23.1446 7.97347 26.434 5.08204C30.3972 1.5983 34.1687 0.23397 36.2021 1.41831C38.3211 2.65262 39.0897 6.87475 37.9558 12.4343C37.0993 16.6376 35.0514 21.6333 32.26 26.5225C29.3979 31.5352 26.1207 35.9517 22.8761 38.8163C18.7705 42.4414 14.8012 43.7533 12.7226 42.5425C10.7056 41.3685 9.93427 37.518 10.9019 32.3707C11.7194 28.0215 13.7711 22.6833 16.7396 17.4824L16.7406 17.4825Z" stroke="#EC5242" stroke-width="1.66272"/>
<path fill-rule="evenodd" clip-rule="evenodd" d="M16.7479 26.5356C13.7989 21.391 11.7911 16.1825 10.953 11.86C9.94417 6.65195 10.6575 2.67001 12.689 1.48222C14.8059 0.244301 18.8111 1.68031 23.0134 5.44916C26.1906 8.29858 29.453 12.5848 32.2526 17.4694C35.1229 22.4773 37.2741 27.5509 38.111 31.8208C39.1699 37.2242 38.3129 41.3528 36.2362 42.567C34.2212 43.7453 30.5339 42.4978 26.6022 39.0803C23.2802 36.1929 19.726 31.7314 16.7479 26.5355V26.5356Z" stroke="#EC5242" stroke-width="1.66272"/>
</svg>
