<svg width="1357" height="300" viewBox="0 0 1357 300" fill="none" xmlns="http://www.w3.org/2000/svg">
<path fill-rule="evenodd" clip-rule="evenodd" d="M300 0H0V300H300V0ZM207.697 58.0105H117.081V89.4299H175.594L207.697 58.0105ZM95.2241 222.625C108.655 222.625 117.081 216.706 117.081 194.62C117.081 194.62 117.081 105.824 117.076 105.824H207.695V246.988H175.592V137.244H148.954V195.076C148.954 235.148 129.602 249.265 98.6361 249.265C91.3506 249.265 81.7878 247.901 75.4127 245.851L78.8297 220.121C83.3842 221.488 88.8489 222.625 95.2241 222.625Z" fill="white"/>
<path d="M400 178.015C400 203.284 417.67 219.672 444.678 219.672C472.968 219.672 489.813 203.65 489.813 175.543V84.8145H462.164V175.36C462.164 188.635 455.939 195.776 444.403 195.776C433.966 195.776 427.008 188.727 426.825 178.015H400Z" fill="white"/>
<path d="M555.64 219.031C585.303 219.031 604.254 200.079 604.254 167.761C604.254 135.901 585.028 116.675 555.64 116.675C526.251 116.675 507.025 135.992 507.025 167.761C507.025 199.988 525.977 219.031 555.64 219.031ZM555.64 198.615C542.456 198.615 534.125 187.537 534.125 167.853C534.125 148.352 542.639 137.091 555.64 137.091C568.64 137.091 577.063 148.352 577.063 167.853C577.063 187.537 568.732 198.615 555.64 198.615Z" fill="white"/>
<path d="M616.431 147.62C616.431 162.085 625.952 171.79 644.537 176.001L662.665 180.029C671.454 182.135 674.75 184.882 674.75 189.825C674.75 196.234 668.616 200.262 658.453 200.262C647.833 200.262 641.333 195.502 640.051 187.262H613.959C615.424 206.396 631.537 219.031 657.721 219.031C683.63 219.031 701.392 206.305 701.392 186.987C701.392 172.339 693.427 164.557 673.743 160.162L654.974 156.134C646.368 154.12 642.157 150.824 642.157 145.972C642.157 139.655 648.199 135.443 657.446 135.443C667.334 135.443 673.651 140.295 674.2 148.169H698.828C698.462 129.126 682.44 116.675 657.812 116.675C632.635 116.675 616.431 128.943 616.431 147.62Z" fill="white"/>
<path d="M715.399 216.925H742.133V160.895C742.133 147.986 749.548 139.105 762.183 139.105C774.359 139.105 780.585 146.796 780.585 159.43V216.925H807.318V153.754C807.318 131.049 794.867 116.949 773.077 116.949C758.154 116.949 747.443 123.907 742.224 136.267H741.675V84.8145H715.399V216.925Z" fill="white"/>
<path d="M915.076 118.781H888.342V174.994C888.342 187.994 880.927 196.509 869.025 196.509C857.214 196.509 850.714 189.551 850.714 176.459V118.781H823.981V182.043C823.981 204.932 838.08 218.756 859.32 218.756C874.152 218.756 883.856 211.615 888.708 199.255H889.258V216.925H915.076V118.781Z" fill="white"/>
<path d="M970.374 199.164C961.31 199.164 955.267 194.586 955.267 187.262C955.267 180.304 960.944 175.818 970.923 175.085L991.614 173.804V180.945C991.614 191.565 982.001 199.164 970.374 199.164ZM961.584 218.481C973.853 218.481 986.029 212.347 991.522 201.91H992.072V216.925H1017.89V149.451C1017.89 129.675 1001.5 116.675 976.324 116.675C950.323 116.675 934.119 129.767 933.112 148.81H957.556C958.838 141.577 965.155 136.633 975.134 136.633C985.205 136.633 991.614 141.943 991.614 151.099V157.599L966.895 159.064C942.45 160.529 928.717 170.874 928.717 188.727C928.717 206.396 942.908 218.481 961.584 218.481Z" fill="white"/>
<path d="M1102.3 216.925V84.8145H1074.65V216.925H1102.3Z" fill="white"/>
<path d="M1211.71 118.781H1183.78L1163.46 193.304H1162.91L1142.49 118.781H1113.84L1147.8 216.925H1178.02L1211.71 118.781Z" fill="white"/>
<path d="M1221.5 216.925H1248.24V118.781H1221.5V216.925ZM1234.87 107.977C1242.93 107.977 1249.15 101.843 1249.15 94.1528C1249.15 86.3708 1242.93 80.3284 1234.87 80.3284C1226.81 80.3284 1220.59 86.3708 1220.59 94.1528C1220.59 101.843 1226.81 107.977 1234.87 107.977Z" fill="white"/>
<path d="M1310.13 136.45C1322.03 136.45 1330.18 145.056 1330.73 157.599H1289.07C1289.98 145.331 1298.41 136.45 1310.13 136.45ZM1331.09 186.896C1328.62 194.403 1321.11 199.255 1311.32 199.255C1297.67 199.255 1288.79 189.642 1288.79 175.635V173.987H1356.45V165.839C1356.45 135.992 1338.42 116.675 1309.85 116.675C1280.83 116.675 1262.52 137 1262.52 168.311C1262.52 199.713 1280.65 219.031 1310.86 219.031C1335.12 219.031 1352.7 206.122 1355.63 186.896H1331.09Z" fill="white"/>
</svg>
